<svg id="Layer_1" data-name="Layer 1" xmlns="http://www.w3.org/2000/svg" viewBox="0 0 285.45 76.76"><defs><style>.cls-1{fill:#fff;}.cls-2{fill:#c82a23;}</style></defs><title>Ciber-Autos-HSBC-Logo</title><path d="M187.33,40.66h-13.9V54.35h-7.05V22.2h7.05V35.27h13.9V22.2h7V54.35h-7Z"/><path d="M211.19,55c-6.85,0-12.66-2.69-12.87-10.37h7.06c0,3.53,2.07,5.4,6,5.4,2.91,0,6-1.46,6-4.57,0-2.49-2.28-3.32-5.81-4.35l-2.28-.63c-5-1.45-10.17-3.52-10.17-9.12,0-7.27,6.64-9.55,12.87-9.55s11.61,2.28,11.61,9.34h-7c-.21-2.91-1.87-4.57-5.19-4.57-2.49,0-5.18,1.46-5.18,4.15,0,2.28,2.07,3.11,6.64,4.57l2.69.83c5.6,1.66,8.92,3.73,8.92,8.92C224.46,52.28,217.41,55,211.19,55Z"/><path d="M228.41,22.2h11.2c3.52,0,5,0,6.22.41,3.94.83,6.85,3.53,6.85,7.68s-2.7,6.22-6.43,7.26c4.35.83,7.46,3.11,7.46,7.88,0,7.26-7.26,8.92-12.86,8.92H228.2V22.2Zm11.2,13.48c3.11,0,6.22-.62,6.22-4.35,0-3.32-2.9-4.15-5.81-4.15h-5v8.5Zm.83,13.9c3.32,0,6.43-.83,6.43-4.77,0-3.73-2.7-4.77-6-4.77h-5.6v9.33h5.19Z"/><path d="M272.18,55C261.8,55,257,48.34,257,38.59s5.19-17,15.36-17c6.43,0,12.65,2.9,12.86,10.16H278a5.32,5.32,0,0,0-5.6-5c-6.23,0-8.1,6.85-8.1,11.83,0,5.18,1.87,11,7.89,11a5.67,5.67,0,0,0,6-5h7.26C284.62,52.28,278.82,55,272.18,55Z"/><rect class="cls-1" x="38.38" width="76.76" height="76.76"/><polygon class="cls-2" points="115.34 76.76 153.72 38.38 115.34 0 115.34 0 115.34 76.76"/><polygon class="cls-2" points="38.38 76.76 0 38.38 38.38 0 38.38 0 38.38 76.76"/><polygon class="cls-2" points="115.34 0 76.76 38.38 38.38 0 38.38 0 115.34 0"/><polygon class="cls-2" points="38.38 76.76 76.76 38.38 115.34 76.76 115.34 76.76 38.38 76.76"/></svg>